<svg xmlns="http://www.w3.org/2000/svg" xmlns:xlink="http://www.w3.org/1999/xlink" version="1.1" x="0px" y="0px" viewBox="0 0 1080 1350" enable-background="new 0 0 1080 1080" xml:space="preserve"><path d="M646.773,540l280.722-280.722c29.484-29.484,29.484-77.289,0-106.773s-77.289-29.484-106.773,0L540,433.228L259.278,152.506  c-29.484-29.484-77.289-29.484-106.773,0s-29.484,77.289,0,106.773L433.227,540L152.506,820.722  c-29.484,29.484-29.484,77.288,0,106.772s77.288,29.484,106.772,0L540,646.773l280.722,280.721  c29.484,29.484,77.288,29.484,106.772,0s29.484-77.288,0-106.772L646.773,540z"/><text transform="matrix(1 0 0 1 83.9482 1269.9463)" font-family="'MyriadPro-Regular'" font-size="66.5194">Created by Benjamin Sommerlad</text><text x="0" y="1095" fill="#000000" font-size="5px" font-weight="bold" font-family="'Helvetica Neue', Helvetica, Arial-Unicode, Arial, Sans-serif">Created by Benjamin Sommerlad</text><text x="0" y="1100" fill="#000000" font-size="5px" font-weight="bold" font-family="'Helvetica Neue', Helvetica, Arial-Unicode, Arial, Sans-serif">from the Noun Project</text></svg>